<svg width="128" height="128" viewBox="0 0 128 128" fill="none" xmlns="http://www.w3.org/2000/svg">
<path fill-rule="evenodd" clip-rule="evenodd" d="M19.4783 0C8.72071 0 0 8.72071 0 19.4783V59.3623V68.6377V108.522C0 119.279 8.72071 128 19.4783 128H59.3623H68.6377H108.522C119.279 128 128 119.279 128 108.522V68.6377V59.3623V19.4783C128 8.72071 119.279 0 108.522 0H68.6377H59.3623H19.4783ZM118.725 59.3623V19.4783C118.725 13.8434 114.157 9.27536 108.522 9.27536H68.6377V59.3623H118.725ZM59.3623 59.3623V9.27536H19.4783C13.8434 9.27536 9.27536 13.8434 9.27536 19.4783V59.3623H59.3623ZM118.725 68.6377H68.6377V118.725H108.522C114.157 118.725 118.725 114.157 118.725 108.522V68.6377ZM59.3623 118.725V68.6377H9.27536V108.522C9.27536 114.157 13.8434 118.725 19.4783 118.725H59.3623ZM74.2029 34.3188C74.2029 31.7575 76.2793 29.6812 78.8406 29.6812H108.522C111.083 29.6812 113.159 31.7575 113.159 34.3188C113.159 36.8802 111.083 38.9565 108.522 38.9565H78.8406C76.2793 38.9565 74.2029 36.8802 74.2029 34.3188ZM34.3188 14.8406C36.8802 14.8406 38.9565 16.9169 38.9565 19.4783V29.6812H49.1594C51.7207 29.6812 53.7971 31.7575 53.7971 34.3188C53.7971 36.8802 51.7207 38.9565 49.1594 38.9565H38.9565V49.1594C38.9565 51.7207 36.8802 53.7971 34.3188 53.7971C31.7575 53.7971 29.6812 51.7207 29.6812 49.1594L29.6812 38.9565H19.4783C16.9169 38.9565 14.8406 36.8802 14.8406 34.3188C14.8406 31.7575 16.9169 29.6812 19.4783 29.6812H29.6812V19.4783C29.6812 16.9169 31.7575 14.8406 34.3188 14.8406ZM27.1043 79.9079C25.2932 78.0968 22.3567 78.0968 20.5456 79.9079C18.7345 81.7191 18.7345 84.6555 20.5456 86.4666L27.7602 93.6812L20.5456 100.896C18.7345 102.707 18.7345 105.643 20.5456 107.454C22.3568 109.266 25.2932 109.266 27.1043 107.454L34.3188 100.24L41.5334 107.454C43.3445 109.266 46.2809 109.266 48.092 107.454C49.9032 105.643 49.9032 102.707 48.092 100.896L40.8775 93.6812L48.0921 86.4666C49.9032 84.6555 49.9032 81.7191 48.0921 79.9079C46.2809 78.0968 43.3445 78.0968 41.5334 79.9079L34.3188 87.1225L27.1043 79.9079ZM74.2029 83.4783C74.2029 80.9169 76.2793 78.8406 78.8406 78.8406H108.522C111.083 78.8406 113.159 80.9169 113.159 83.4783C113.159 86.0396 111.083 88.1159 108.522 88.1159H78.8406C76.2793 88.1159 74.2029 86.0396 74.2029 83.4783ZM113.159 103.884C113.159 106.445 111.083 108.522 108.522 108.522H78.8406C76.2793 108.522 74.2029 106.445 74.2029 103.884C74.2029 101.323 76.2793 99.2464 78.8406 99.2464H108.522C111.083 99.2464 113.159 101.323 113.159 103.884Z" fill="white"/>
</svg>
