<svg width="128" height="128" viewBox="0 0 128 128" fill="none" xmlns="http://www.w3.org/2000/svg">
<rect width="128" height="128" rx="24" fill="#0071E3"/>
<path fill-rule="evenodd" clip-rule="evenodd" d="M30.6087 16C22.5405 16 16 22.5405 16 30.6087V60.5217V67.4783V97.3913C16 105.459 22.5405 112 30.6087 112H60.5217H67.4783H97.3913C105.459 112 112 105.459 112 97.3913V67.4783V60.5217V30.6087C112 22.5405 105.459 16 97.3913 16H67.4783H60.5217H30.6087ZM105.043 60.5217V30.6087C105.043 26.3825 101.617 22.9565 97.3913 22.9565H67.4783V60.5217H105.043ZM60.5217 60.5217V22.9565H30.6087C26.3825 22.9565 22.9565 26.3825 22.9565 30.6087V60.5217H60.5217ZM105.043 67.4783H67.4783V105.043H97.3913C101.617 105.043 105.043 101.617 105.043 97.3913V67.4783ZM60.5217 105.043V67.4783H22.9565V97.3913C22.9565 101.617 26.3825 105.043 30.6087 105.043H60.5217ZM71.6522 41.7391C71.6522 39.8181 73.2094 38.2609 75.1304 38.2609H97.3913C99.3123 38.2609 100.87 39.8181 100.87 41.7391C100.87 43.6601 99.3123 45.2174 97.3913 45.2174H75.1304C73.2094 45.2174 71.6522 43.6601 71.6522 41.7391ZM41.7391 27.1304C43.6601 27.1304 45.2174 28.6877 45.2174 30.6087V38.2609H52.8696C54.7906 38.2609 56.3478 39.8181 56.3478 41.7391C56.3478 43.6601 54.7906 45.2174 52.8696 45.2174H45.2174V52.8696C45.2174 54.7906 43.6601 56.3478 41.7391 56.3478C39.8181 56.3478 38.2609 54.7906 38.2609 52.8696L38.2609 45.2174H30.6087C28.6877 45.2174 27.1304 43.6601 27.1304 41.7391C27.1304 39.8181 28.6877 38.2609 30.6087 38.2609H38.2609V30.6087C38.2609 28.6877 39.8181 27.1304 41.7391 27.1304ZM36.3282 75.931C34.9699 74.5726 32.7676 74.5726 31.4092 75.931C30.0509 77.2893 30.0509 79.4916 31.4092 80.85L36.8201 86.2609L31.4092 91.6718C30.0509 93.0301 30.0509 95.2324 31.4092 96.5908C32.7676 97.9491 34.9699 97.9491 36.3282 96.5908L41.7391 91.1799L47.15 96.5908C48.5084 97.9491 50.7107 97.9491 52.069 96.5908C53.4274 95.2324 53.4274 93.0301 52.069 91.6718L46.6581 86.2609L52.069 80.85C53.4274 79.4916 53.4274 77.2893 52.069 75.931C50.7107 74.5726 48.5084 74.5726 47.15 75.931L41.7391 81.3419L36.3282 75.931ZM71.6522 78.6087C71.6522 76.6877 73.2094 75.1304 75.1304 75.1304H97.3913C99.3123 75.1304 100.87 76.6877 100.87 78.6087C100.87 80.5297 99.3123 82.087 97.3913 82.087H75.1304C73.2094 82.087 71.6522 80.5297 71.6522 78.6087ZM100.87 93.913C100.87 95.834 99.3123 97.3913 97.3913 97.3913H75.1304C73.2094 97.3913 71.6522 95.834 71.6522 93.913C71.6522 91.9921 73.2094 90.4348 75.1304 90.4348H97.3913C99.3123 90.4348 100.87 91.9921 100.87 93.913Z" fill="white"/>
</svg>
