<svg width="122" height="128" viewBox="0 0 122 128" fill="none" xmlns="http://www.w3.org/2000/svg">
<path fill-rule="evenodd" clip-rule="evenodd" d="M26.2919 0C27.3929 0 28.4488 0.43737 29.2273 1.21589C30.0059 1.9944 30.4432 3.05033 30.4432 4.15137V11.0702H59.618V4.15137C59.618 3.05033 60.0554 1.9944 60.8339 1.21589C61.6124 0.43737 62.6684 0 63.7694 0C64.8704 0 65.9263 0.43737 66.7048 1.21589C67.4833 1.9944 67.9207 3.05033 67.9207 4.15137V11.0702H74.8397C78.8767 11.0702 82.7484 12.674 85.6029 15.5286C88.4576 18.3832 90.0613 22.2549 90.0613 26.2919V49.8162H8.30273V87.1784C8.30273 90.9977 11.4024 94.0973 15.2216 94.0973H44.8006V102.4H15.2216C11.1846 102.4 7.31289 100.796 4.45833 97.9417C1.60371 95.0871 0 91.2154 0 87.1784V26.2919C0 22.2549 1.60371 18.3832 4.45833 15.5286C7.31289 12.674 11.1846 11.0702 15.2216 11.0702H22.1406V4.15137C22.1406 3.05033 22.5779 1.9944 23.3564 1.21589C24.135 0.43737 25.1909 0 26.2919 0ZM59.618 19.373V26.2919C59.618 27.3929 60.0554 28.4488 60.8339 29.2273C61.6124 30.0059 62.6684 30.4432 63.7694 30.4432C64.8704 30.4432 65.9263 30.0059 66.7048 29.2273C67.4833 28.4488 67.9207 27.3929 67.9207 26.2919V19.373H74.8397C78.6589 19.373 81.7586 22.4727 81.7586 26.2919V41.5135H8.30273V26.2919C8.30273 22.4727 11.4024 19.373 15.2216 19.373H22.1406V26.2919C22.1406 27.3929 22.5779 28.4488 23.3564 29.2273C24.135 30.0059 25.1909 30.4432 26.2919 30.4432C27.3929 30.4432 28.4488 30.0059 29.2273 29.2273C30.0059 28.4488 30.4432 27.3929 30.4432 26.2919V19.373H59.618ZM73.8568 70.1905C77.9978 67.8109 82.6906 66.5591 87.4667 66.56C92.2428 66.5591 96.9356 67.8109 101.077 70.1905C105.218 72.5701 108.662 75.9942 111.066 80.121C113.471 84.2479 114.75 88.9331 114.778 93.7091C114.805 98.4851 113.58 103.185 111.223 107.339C109.631 105.269 107.583 103.593 105.24 102.441C102.896 101.289 100.318 100.691 97.7067 100.693H77.2267C74.615 100.691 72.0376 101.289 69.6938 102.441C67.35 103.593 65.3026 105.269 63.7099 107.339C61.3535 103.185 60.1279 98.4851 60.1555 93.7091C60.183 88.9331 61.4628 84.2479 63.867 80.121C66.2712 75.9942 69.7157 72.5701 73.8568 70.1905ZM115.808 112.893C115.416 113.477 115.007 114.049 114.579 114.606L114.596 114.668L113.384 116.077C111.466 118.318 109.265 120.301 106.837 121.975C101.761 125.484 95.8239 127.543 89.6649 127.932C88.9367 127.977 88.204 128 87.4667 128C82.5416 128.004 77.6741 126.941 73.1998 124.882C68.7254 122.824 64.7506 119.82 61.5493 116.077L60.3375 114.668L60.3546 114.606C55.7911 108.656 53.3226 101.365 53.3334 93.8667C53.3334 75.0148 68.6149 59.7333 87.4667 59.7333C106.319 59.7333 121.6 75.0148 121.6 93.8667C121.609 100.644 119.592 107.27 115.808 112.893ZM80.2259 76.3859C82.1463 74.4655 84.7509 73.3867 87.4667 73.3867C90.1825 73.3867 92.7871 74.4655 94.7075 76.3859C96.6278 78.3063 97.7067 80.9109 97.7067 83.6267C97.7067 86.3425 96.6278 88.9471 94.7075 90.8674C92.7871 92.7878 90.1825 93.8667 87.4667 93.8667C84.7509 93.8667 82.1463 92.7878 80.2259 90.8674C78.3056 88.9471 77.2267 86.3425 77.2267 83.6267C77.2267 80.9109 78.3056 78.3063 80.2259 76.3859Z" fill="#0071E3"/>
</svg>
