<svg width="128" height="128" viewBox="0 0 128 128" fill="none" xmlns="http://www.w3.org/2000/svg">
<path fill-rule="evenodd" clip-rule="evenodd" d="M0 58.3291C0 26.1253 26.1253 0 58.3291 0C90.533 0 116.658 26.1253 116.658 58.3291C116.658 61.9085 113.757 64.8101 110.177 64.8101C106.598 64.8101 103.696 61.9085 103.696 58.3291C103.696 33.284 83.3742 12.962 58.3291 12.962C33.284 12.962 12.962 33.284 12.962 58.3291C12.962 83.3742 33.284 103.696 58.3291 103.696C61.9085 103.696 64.8101 106.598 64.8101 110.177C64.8101 113.757 61.9085 116.658 58.3291 116.658C26.1253 116.658 0 90.5329 0 58.3291ZM58.3291 17.2827C61.9085 17.2827 64.8101 20.1844 64.8101 23.7637V56.1688H84.2532C87.8325 56.1688 90.7342 59.0704 90.7342 62.6498C90.7342 66.2291 87.8325 69.1308 84.2532 69.1308H58.3291C54.7497 69.1308 51.8481 66.2291 51.8481 62.6498V23.7637C51.8481 20.1844 54.7497 17.2827 58.3291 17.2827ZM128 101.536C128 116.152 116.152 128 101.536 128C86.9201 128 75.0717 116.152 75.0717 101.536C75.0717 86.9201 86.9201 75.0717 101.536 75.0717C116.152 75.0717 128 86.9201 128 101.536ZM93.1602 114.105C92.2846 114.105 91.6163 113.863 91.1555 113.379C90.6946 112.895 90.4641 112.215 90.4641 111.339V91.8791C90.4641 91.0035 90.6946 90.3237 91.1555 89.8398C91.6163 89.3559 92.2846 89.1139 93.1602 89.1139C94.0129 89.1139 94.6696 89.3559 95.1305 89.8398C95.5913 90.3237 95.8218 91.0035 95.8218 91.8791V99.207H107.159V91.8791C107.159 91.0035 107.39 90.3237 107.851 89.8398C108.311 89.3559 108.968 89.1139 109.821 89.1139C110.696 89.1139 111.365 89.3559 111.826 89.8398C112.286 90.3237 112.517 91.0035 112.517 91.8791V111.339C112.517 112.215 112.286 112.895 111.826 113.379C111.365 113.863 110.696 114.105 109.821 114.105C108.968 114.105 108.311 113.863 107.851 113.379C107.39 112.895 107.159 112.215 107.159 111.339V103.666H95.8218V111.339C95.8218 112.215 95.5913 112.895 95.1305 113.379C94.6926 113.863 94.0359 114.105 93.1602 114.105Z" fill="#19858C"/>
</svg>
