<svg width="122" height="128" viewBox="0 0 122 128" fill="none" xmlns="http://www.w3.org/2000/svg">
<path fill-rule="evenodd" clip-rule="evenodd" d="M26.2919 0C27.3929 0 28.4488 0.43737 29.2273 1.21589C30.0059 1.9944 30.4432 3.05033 30.4432 4.15137V11.0702H59.618V4.15137C59.618 3.05033 60.0554 1.9944 60.8339 1.21589C61.6124 0.43737 62.6684 0 63.7694 0C64.8704 0 65.9263 0.43737 66.7048 1.21589C67.4833 1.9944 67.9207 3.05033 67.9207 4.15137V11.0702H74.8396C78.8767 11.0702 82.7484 12.674 85.6029 15.5286C88.4575 18.3832 90.0613 22.2549 90.0613 26.2919V49.8162H8.30273V87.1784C8.30273 90.9977 11.4024 94.0973 15.2216 94.0973H44.8006V102.4H15.2216C11.1846 102.4 7.31289 100.796 4.45833 97.9417C1.60371 95.0871 0 91.2154 0 87.1784V26.2919C0 22.2549 1.60371 18.3832 4.45833 15.5286C7.31289 12.674 11.1846 11.0702 15.2216 11.0702H22.1406V4.15137C22.1406 3.05033 22.5779 1.9944 23.3564 1.21589C24.135 0.43737 25.1909 0 26.2919 0ZM59.618 19.373V26.2919C59.618 27.3929 60.0554 28.4488 60.8339 29.2273C61.6124 30.0059 62.6684 30.4432 63.7694 30.4432C64.8704 30.4432 65.9263 30.0059 66.7048 29.2273C67.4833 28.4488 67.9207 27.3929 67.9207 26.2919V19.373H74.8396C78.6588 19.373 81.7586 22.4727 81.7586 26.2919V41.5135H8.30273V26.2919C8.30273 22.4727 11.4024 19.373 15.2216 19.373H22.1406V26.2919C22.1406 27.3929 22.5779 28.4488 23.3564 29.2273C24.135 30.0059 25.1909 30.4432 26.2919 30.4432C27.3929 30.4432 28.4488 30.0059 29.2273 29.2273C30.0059 28.4488 30.4432 27.3929 30.4432 26.2919V19.373H59.618ZM53.3333 93.8667C53.3333 75.0205 68.6205 59.7333 87.4667 59.7333C106.313 59.7333 121.6 75.0205 121.6 93.8667C121.6 112.713 106.313 128 87.4667 128C68.6205 128 53.3333 112.713 53.3333 93.8667ZM61.8667 93.8667C61.8667 79.7333 73.3333 68.2667 87.4667 68.2667C101.6 68.2667 113.067 79.7333 113.067 93.8667C113.067 108 101.6 119.467 87.4667 119.467C73.3333 119.467 61.8667 108 61.8667 93.8667ZM87.4667 72.5333C89.8231 72.5333 91.7333 74.4436 91.7333 76.8V91.7333H100.267C102.623 91.7333 104.533 93.6436 104.533 96C104.533 98.3564 102.623 100.267 100.267 100.267H87.4667C85.1102 100.267 83.2 98.3564 83.2 96V76.8C83.2 74.4436 85.1102 72.5333 87.4667 72.5333Z" fill="#0071E3"/>
</svg>
