<svg width="128" height="128" viewBox="0 0 128 128" fill="none" xmlns="http://www.w3.org/2000/svg">
<path d="M119.92 49.6114C117.766 47.36 115.537 45.04 114.697 43C113.92 41.1314 113.874 38.0343 113.829 35.0343C113.743 29.4571 113.651 23.1371 109.257 18.7429C104.863 14.3486 98.5429 14.2571 92.9657 14.1714C89.9657 14.1257 86.8686 14.08 85 13.3029C82.9657 12.4629 80.64 10.2343 78.3886 8.08C74.4457 4.29143 69.9657 0 64 0C58.0343 0 53.56 4.29143 49.6114 8.08C47.36 10.2343 45.04 12.4629 43 13.3029C41.1429 14.08 38.0343 14.1257 35.0343 14.1714C29.4571 14.2571 23.1371 14.3486 18.7429 18.7429C14.3486 23.1371 14.2857 29.4571 14.1714 35.0343C14.1257 38.0343 14.08 41.1314 13.3029 43C12.4629 45.0343 10.2343 47.36 8.08 49.6114C4.29143 53.56 0 58.0343 0 64C0 69.9657 4.29143 74.44 8.08 78.3886C10.2343 80.64 12.4629 82.96 13.3029 85C14.08 86.8686 14.1257 89.9657 14.1714 92.9657C14.2571 98.5429 14.3486 104.863 18.7429 109.257C23.1371 113.651 29.4571 113.743 35.0343 113.829C38.0343 113.874 41.1314 113.92 43 114.697C45.0343 115.537 47.36 117.766 49.6114 119.92C53.5543 123.709 58.0343 128 64 128C69.9657 128 74.44 123.709 78.3886 119.92C80.64 117.766 82.96 115.537 85 114.697C86.8686 113.92 89.9657 113.874 92.9657 113.829C98.5429 113.743 104.863 113.651 109.257 109.257C113.651 104.863 113.743 98.5429 113.829 92.9657C113.874 89.9657 113.92 86.8686 114.697 85C115.537 82.9657 117.766 80.64 119.92 78.3886C123.709 74.44 128 69.9657 128 64C128 58.0343 123.709 53.56 119.92 49.6114ZM113.32 72.0629C110.583 74.92 107.749 77.8743 106.246 81.5029C104.806 84.9886 104.743 88.9714 104.686 92.8286C104.629 96.8286 104.566 101.017 102.789 102.789C101.011 104.56 96.8514 104.629 92.8286 104.686C88.9714 104.743 84.9886 104.806 81.5029 106.246C77.8743 107.749 74.92 110.583 72.0629 113.32C69.2057 116.057 66.2857 118.857 64 118.857C61.7143 118.857 58.7714 116.046 55.9371 113.32C53.1029 110.594 50.1257 107.749 46.4971 106.246C43.0114 104.806 39.0286 104.743 35.1714 104.686C31.1714 104.629 26.9829 104.566 25.2114 102.789C23.44 101.011 23.3714 96.8514 23.3143 92.8286C23.2571 88.9714 23.1943 84.9886 21.7543 81.5029C20.2514 77.8743 17.4171 74.92 14.68 72.0629C11.9429 69.2057 9.14286 66.2857 9.14286 64C9.14286 61.7143 11.9543 58.7771 14.68 55.9371C17.4057 53.0971 20.2514 50.1257 21.7543 46.4971C23.1943 43.0114 23.2571 39.0286 23.3143 35.1714C23.3714 31.1714 23.4343 26.9829 25.2114 25.2114C26.9886 23.44 31.1486 23.3714 35.1714 23.3143C39.0286 23.2571 43.0114 23.1943 46.4971 21.7543C50.1257 20.2514 53.08 17.4171 55.9371 14.68C58.7943 11.9429 61.7143 9.14286 64 9.14286C66.2857 9.14286 69.2286 11.9543 72.0629 14.68C74.8971 17.4057 77.8743 20.2514 81.5029 21.7543C84.9886 23.1943 88.9714 23.2571 92.8286 23.3143C96.8286 23.3714 101.017 23.4343 102.789 25.2114C104.56 26.9886 104.629 31.1486 104.686 35.1714C104.743 39.0286 104.806 43.0114 106.246 46.4971C107.749 50.1257 110.583 53.08 113.32 55.9371C116.057 58.7943 118.857 61.7143 118.857 64C118.857 66.2857 116.046 69.2229 113.32 72.0629ZM59.4286 45.7143C59.4286 43.0019 58.6242 40.3503 57.1173 38.095C55.6104 35.8397 53.4685 34.0819 50.9625 33.0439C48.4566 32.0059 45.6991 31.7343 43.0388 32.2635C40.3785 32.7927 37.9348 34.0988 36.0168 36.0168C34.0988 37.9348 32.7927 40.3785 32.2635 43.0388C31.7343 45.6991 32.0059 48.4566 33.0439 50.9625C34.0819 53.4685 35.8397 55.6104 38.095 57.1173C40.3503 58.6242 43.0019 59.4286 45.7143 59.4286C49.3515 59.4286 52.8398 57.9837 55.4118 55.4118C57.9837 52.8398 59.4286 49.3515 59.4286 45.7143ZM41.1429 45.7143C41.1429 44.8101 41.411 43.9263 41.9133 43.1745C42.4156 42.4228 43.1296 41.8368 43.9649 41.4908C44.8002 41.1448 45.7194 41.0543 46.6061 41.2307C47.4929 41.4071 48.3074 41.8425 48.9468 42.4818C49.5861 43.1211 50.0215 43.9357 50.1979 44.8224C50.3743 45.7092 50.2837 46.6284 49.9377 47.4637C49.5917 48.299 49.0058 49.013 48.254 49.5153C47.5023 50.0176 46.6184 50.2857 45.7143 50.2857C44.5019 50.2857 43.3391 49.8041 42.4818 48.9468C41.6245 48.0895 41.1429 46.9267 41.1429 45.7143ZM82.2857 68.5714C79.5733 68.5714 76.9218 69.3758 74.6665 70.8827C72.4112 72.3896 70.6534 74.5315 69.6154 77.0375C68.5774 79.5434 68.3058 82.3009 68.8349 84.9612C69.3641 87.6216 70.6703 90.0652 72.5883 91.9832C74.5062 93.9012 76.9499 95.2073 79.6102 95.7365C82.2705 96.2657 85.028 95.9941 87.5339 94.9561C90.0399 93.9181 92.1818 92.1603 93.6887 89.905C95.1957 87.6497 96 84.9981 96 82.2857C96 78.6485 94.5551 75.1602 91.9832 72.5883C89.4113 70.0163 85.923 68.5714 82.2857 68.5714ZM82.2857 86.8571C81.3816 86.8571 80.4977 86.589 79.746 86.0867C78.9942 85.5844 78.4083 84.8704 78.0623 84.0351C77.7163 83.1998 77.6257 82.2806 77.8021 81.3939C77.9785 80.5071 78.4139 79.6926 79.0532 79.0532C79.6926 78.4139 80.5071 77.9785 81.3939 77.8021C82.2806 77.6257 83.1998 77.7163 84.0351 78.0623C84.8704 78.4083 85.5844 78.9942 86.0867 79.746C86.589 80.4977 86.8571 81.3816 86.8571 82.2857C86.8571 83.4981 86.3755 84.6609 85.5182 85.5182C84.6609 86.3755 83.4981 86.8571 82.2857 86.8571ZM90.0914 44.3771L44.3771 90.0914C43.9524 90.5162 43.4482 90.8531 42.8932 91.0829C42.3383 91.3128 41.7435 91.4311 41.1429 91.4311C40.5422 91.4311 39.9474 91.3128 39.3925 91.0829C38.8375 90.8531 38.3333 90.5162 37.9086 90.0914C37.4838 89.6667 37.1469 89.1625 36.9171 88.6075C36.6872 88.0526 36.5689 87.4578 36.5689 86.8571C36.5689 86.2565 36.6872 85.6617 36.9171 85.1068C37.1469 84.5518 37.4838 84.0476 37.9086 83.6229L83.6229 37.9086C84.0476 37.4838 84.5518 37.1469 85.1068 36.9171C85.6617 36.6872 86.2565 36.5689 86.8571 36.5689C87.4578 36.5689 88.0526 36.6872 88.6075 36.9171C89.1625 37.1469 89.6667 37.4838 90.0914 37.9086C90.5162 38.3333 90.8531 38.8375 91.0829 39.3925C91.3128 39.9474 91.4311 40.5422 91.4311 41.1429C91.4311 41.7435 91.3128 42.3383 91.0829 42.8932C90.8531 43.4482 90.5162 43.9524 90.0914 44.3771Z" fill="#19858C"/>
</svg>
