<svg width="256" height="256" viewBox="0 0 256 256" fill="none" xmlns="http://www.w3.org/2000/svg">
<path d="M145 139.49H130.56C127.8 139.49 125.56 141.73 125.56 144.49V167C125.56 169.76 127.8 172 130.56 172C133.32 172 135.56 169.76 135.56 167V149.49H145C150.28 149.49 155.23 151.84 158.57 155.93C163.8 162.34 163.8 171.65 158.57 178.07C155.23 182.16 150.29 184.51 145 184.51C142.24 184.51 140 186.75 140 189.51C140 192.27 142.24 194.51 145 194.51C153.3 194.51 161.07 190.82 166.32 184.39C174.54 174.31 174.54 159.68 166.32 149.61C161.07 143.18 153.3 139.49 145 139.49Z" fill="white"/>
<path d="M130.56 194.51C133.321 194.51 135.56 192.271 135.56 189.51C135.56 186.749 133.321 184.51 130.56 184.51C127.799 184.51 125.56 186.749 125.56 189.51C125.56 192.271 127.799 194.51 130.56 194.51Z" fill="white"/>
<path d="M83.0301 74.59H157.34C158.92 74.59 160.2 73.31 160.2 71.73V8.36C160.2 5.9 157.31 4.59 155.46 6.21L140.2 19.57L122.07 3.71C120.99 2.77 119.38 2.77 118.3 3.71L100.18 19.57L84.9201 6.21C83.0701 4.59 80.1801 5.91 80.1801 8.36V71.73C80.1801 73.31 81.4601 74.59 83.0401 74.59H83.0301ZM99.8501 40L113.11 26.74C115 24.85 117.51 23.81 120.18 23.81C122.85 23.81 125.36 24.85 127.25 26.74L140.51 40C142.4 41.89 143.44 44.4 143.44 47.07C143.44 49.74 142.4 52.25 140.51 54.14L127.25 67.4C125.36 69.29 122.85 70.33 120.18 70.33C117.51 70.33 115 69.29 113.11 67.4L99.8501 54.14C97.9601 52.25 96.9201 49.74 96.9201 47.07C96.9201 44.4 97.9601 41.89 99.8501 40Z" fill="white"/>
<path d="M79.86 97.1H159.89C164.03 97.1 167.39 93.74 167.39 89.6C167.39 85.46 164.03 82.1 159.89 82.1H79.86C75.72 82.1 72.36 85.46 72.36 89.6C72.36 93.74 75.72 97.1 79.86 97.1Z" fill="white"/>
<path d="M118.42 62.1099C118.91 62.5999 119.55 62.8399 120.19 62.8399C120.83 62.8399 121.47 62.5999 121.96 62.1099L135.22 48.8499C136.2 47.8699 136.2 46.2899 135.22 45.3099L121.96 32.0499C121.47 31.5599 120.83 31.3199 120.19 31.3199C119.55 31.3199 118.91 31.5599 118.42 32.0499L105.16 45.3099C104.18 46.2899 104.18 47.8699 105.16 48.8499L118.42 62.1099Z" fill="white"/>
<path d="M185.43 82.47L191.51 98.9L197.59 82.47L214.02 76.39L197.59 70.31L191.51 53.88L185.43 70.31L169 76.39L185.43 82.47Z" fill="white"/>
<path d="M172.59 58.9901L182.48 49.1001C183.6 47.9801 183.6 46.1701 182.48 45.0501L172.59 35.1601C170.79 33.3601 167.71 34.6301 167.71 37.1801V56.9601C167.71 59.5101 170.79 60.7901 172.59 58.9801V58.9901Z" fill="white"/>
<path d="M67.78 58.99C69.58 60.79 72.6601 59.5199 72.6601 56.9699V37.1899C72.6601 34.6399 69.58 33.3699 67.78 35.1699L57.89 45.06C56.77 46.18 56.77 47.99 57.89 49.11L67.78 58.9999V58.99Z" fill="white"/>
<path d="M199.33 104.84L196.62 112.14L189.32 114.85L196.62 117.55L199.33 124.85L202.03 117.55L209.33 114.85L202.03 112.14L199.33 104.84Z" fill="white"/>
<path d="M228.69 86.1L218.08 90.98L207.47 86.1L212.35 96.71L207.47 107.33L218.08 102.45L228.69 107.33L223.82 96.71L228.69 86.1Z" fill="white"/>
<path d="M207.31 162.33C207 159.54 205.96 156.82 204.18 154.46C203.86 154.03 203.51 153.62 203.14 153.21L162.69 109.5C161.74 108.47 160.67 107.59 159.51 106.85C159.05 106.56 158.57 106.29 158.08 106.04C155.88 104.94 153.42 104.35 150.91 104.35H83.81C79.34 104.35 75.07 106.22 72.03 109.5L31.58 153.21C25.62 159.65 25.93 169.67 32.28 175.73L108.8 248.77C111.24 251.1 114.24 252.5 117.35 252.99C117.35 252.99 117.36 252.99 117.37 252.99C117.37 252.99 117.38 252.99 117.39 252.99C118.56 252.8 119.71 252.49 120.82 252.05C121.19 251.9 121.55 251.74 121.91 251.57C121.94 251.56 121.96 251.54 121.98 251.53C122.31 251.36 122.65 251.19 122.97 251C123.05 250.95 123.12 250.9 123.2 250.86C123.47 250.7 123.74 250.53 124 250.35C124.19 250.22 124.37 250.07 124.56 249.93C124.7 249.82 124.85 249.72 124.99 249.61C125.31 249.35 125.63 249.07 125.93 248.78L202.45 175.74C203 175.22 203.5 174.66 203.96 174.08C204.4 173.53 204.79 172.96 205.14 172.36C206.03 170.88 206.66 169.29 207.03 167.65C207.25 166.65 207.38 165.64 207.41 164.62C207.43 164.11 207.41 163.6 207.39 163.09C207.37 162.84 207.35 162.58 207.32 162.33H207.31ZM67.2301 194.51C64.4701 194.51 62.23 192.27 62.23 189.51C62.23 186.75 64.4701 184.51 67.2301 184.51C69.9901 184.51 72.2301 186.75 72.2301 189.51C72.2301 192.27 69.9901 194.51 67.2301 194.51ZM102.99 184.39C97.74 190.82 89.97 194.51 81.67 194.51C78.91 194.51 76.67 192.27 76.67 189.51C76.67 186.75 78.91 184.51 81.67 184.51C86.95 184.51 91.9 182.16 95.24 178.07C100.47 171.66 100.47 162.35 95.24 155.93C91.9 151.84 86.96 149.49 81.67 149.49H72.2301V167C72.2301 169.76 69.9901 172 67.2301 172C64.4701 172 62.23 169.76 62.23 167V144.49C62.23 141.73 64.4701 139.49 67.2301 139.49H81.67C89.97 139.49 97.74 143.18 102.99 149.61C111.21 159.69 111.21 174.32 102.99 184.39ZM197.26 170.3L120.74 243.34C119.78 244.25 118.63 244.92 117.37 245.31V111.86H150.9C153.28 111.86 155.56 112.86 157.18 114.6L197.63 158.31C200.78 161.72 200.62 167.1 197.26 170.3Z" fill="white"/>
</svg>
