<svg width="72" height="128" viewBox="0 0 72 128" fill="none" xmlns="http://www.w3.org/2000/svg">
<path d="M37.6889 56.1778C21.5467 51.9822 16.3556 47.6444 16.3556 40.8889C16.3556 33.1378 23.5378 27.7333 35.5556 27.7333C45.6533 27.7333 50.7022 31.5733 52.5511 37.6889C53.4045 40.5333 55.7511 42.6667 58.7378 42.6667H60.8711C65.5645 42.6667 68.9067 38.0444 67.2711 33.6356C64.2844 25.2444 57.3156 18.2756 46.2222 15.5733V10.6667C46.2222 4.76444 41.4578 0 35.5556 0C29.6533 0 24.8889 4.76444 24.8889 10.6667V15.36C11.0933 18.3467 0 27.3067 0 41.0311C0 57.4578 13.5822 65.6356 33.4222 70.4C51.2 74.6667 54.7556 80.9244 54.7556 87.5378C54.7556 92.4444 51.2711 100.267 35.5556 100.267C23.8222 100.267 17.7778 96.0711 15.4311 90.0978C14.3644 87.3244 11.9467 85.3333 9.03111 85.3333H7.04C2.27555 85.3333 -1.06667 90.1689 0.71111 94.5778C4.76444 104.462 14.2222 110.293 24.8889 112.569V117.333C24.8889 123.236 29.6533 128 35.5556 128C41.4578 128 46.2222 123.236 46.2222 117.333V112.711C60.0889 110.08 71.1111 102.044 71.1111 87.4667C71.1111 67.2711 53.8311 60.3733 37.6889 56.1778Z" fill="#0071E3"/>
</svg>
