<svg width="128" height="142" viewBox="0 0 128 142" fill="none" xmlns="http://www.w3.org/2000/svg">
<path fill-rule="evenodd" clip-rule="evenodd" d="M125.04 29.9071C128.987 33.8535 128.987 40.2518 125.04 44.1981L98.0929 71.1455C94.1465 75.0918 87.7482 75.0918 83.8019 71.1455C79.8555 67.1991 79.8555 60.8008 83.8019 56.8545L93.4985 47.1579L10.1053 47.1579C4.52428 47.1579 -2.81725e-06 42.6336 -2.5733e-06 37.0526C-2.32934e-06 31.4716 4.52428 26.9474 10.1053 26.9474L93.4985 26.9474L83.8019 17.2508C79.8555 13.3044 79.8555 6.90611 83.8019 2.95976C87.7482 -0.986589 94.1465 -0.986589 98.0929 2.95976L125.04 29.9071ZM128 104.421C128 110.002 123.476 114.526 117.895 114.526L34.5015 114.526L44.1981 124.223C48.1445 128.169 48.1445 134.568 44.1981 138.514C40.2518 142.46 33.8535 142.46 29.9071 138.514L2.95976 111.567C-0.986591 107.62 -0.986591 101.222 2.95976 97.2755L29.9071 70.3282C33.8535 66.3818 40.2518 66.3818 44.1981 70.3282C48.1445 74.2745 48.1445 80.6728 44.1981 84.6192L34.5015 94.3158L117.895 94.3158C123.476 94.3158 128 98.8401 128 104.421Z" fill="#19858C"/>
</svg>
