<svg width="128" height="128" viewBox="0 0 128 128" fill="none" xmlns="http://www.w3.org/2000/svg">
<path fill-rule="evenodd" clip-rule="evenodd" d="M32 0C14.3269 0 0 14.3268 0 32V96C0 113.673 14.3269 128 32 128H96C113.673 128 128 113.673 128 96V32C128 14.3268 113.673 0 96 0H32ZM50.9037 48.5926C50.9037 53.0964 54.3644 55.9881 65.1259 58.7852C75.8874 61.5822 87.4074 66.1807 87.4074 79.6444C87.4074 89.363 80.0592 94.7201 70.8148 96.4741V99.5555C70.8148 103.49 67.6385 106.667 63.7037 106.667C59.7689 106.667 56.5926 103.49 56.5926 99.5555V96.3792C49.4814 94.8623 43.1763 90.9748 40.474 84.3853C39.2889 81.446 41.517 78.2222 44.6934 78.2222H46.0208C47.9644 78.2222 49.5763 79.5496 50.2874 81.3984C51.8519 85.3807 55.8815 88.1777 63.7037 88.1777C74.1807 88.1777 76.5037 82.9629 76.5037 79.6919C76.5037 75.283 74.1333 71.1112 62.2815 68.2666C49.0549 65.0903 40 59.6385 40 48.6873C40 39.5378 47.3956 33.5645 56.5926 31.5734V28.4445C56.5926 24.5096 59.7689 21.3333 63.7037 21.3333C67.6385 21.3333 70.8148 24.5096 70.8148 28.4445V31.7155C78.2104 33.5171 82.8563 38.1629 84.8474 43.757C85.9377 46.6963 83.7096 49.7778 80.5807 49.7778H79.1585C77.1674 49.7778 75.6029 48.3556 75.0341 46.4593C73.8015 42.3822 70.4355 39.8223 63.7037 39.8223C55.6918 39.8223 50.9037 43.4251 50.9037 48.5926Z" fill="#0071E3"/>
</svg>
