<svg width="128" height="128" viewBox="0 0 128 128" fill="none" xmlns="http://www.w3.org/2000/svg">
<path fill-rule="evenodd" clip-rule="evenodd" d="M0 58.3291C0 26.1253 26.1253 0 58.3291 0C90.533 0 116.658 26.1253 116.658 58.3291C116.658 61.9085 113.757 64.8101 110.177 64.8101C106.598 64.8101 103.696 61.9085 103.696 58.3291C103.696 33.284 83.3742 12.962 58.3291 12.962C33.284 12.962 12.962 33.284 12.962 58.3291C12.962 83.3742 33.284 103.696 58.3291 103.696C61.9085 103.696 64.8101 106.598 64.8101 110.177C64.8101 113.757 61.9085 116.658 58.3291 116.658C26.1253 116.658 0 90.5329 0 58.3291ZM58.3291 17.2827C61.9085 17.2827 64.8101 20.1844 64.8101 23.7637V56.1688H84.2532C87.8325 56.1688 90.7342 59.0704 90.7342 62.6498C90.7342 66.2292 87.8325 69.1308 84.2532 69.1308H58.3291C54.7497 69.1308 51.8481 66.2292 51.8481 62.6498V23.7637C51.8481 20.1844 54.7497 17.2827 58.3291 17.2827ZM128 101.536C128 116.152 116.152 128 101.536 128C86.9201 128 75.0717 116.152 75.0717 101.536C75.0717 86.9201 86.9201 75.0717 101.536 75.0717C116.152 75.0717 128 86.9201 128 101.536ZM93.5172 114.105C92.7798 114.105 92.1806 113.932 91.7198 113.586C91.2589 113.218 90.8902 112.664 90.6137 111.927L83.6315 92.2939C83.3319 91.4183 83.3895 90.6694 83.8043 90.0472C84.2421 89.425 84.991 89.1139 86.0511 89.1139C86.7884 89.1139 87.353 89.2867 87.7448 89.6324C88.1595 89.9781 88.4937 90.5196 88.7472 91.257L93.7278 106.078L98.9785 91.2915C99.255 90.5541 99.5892 90.0126 99.9809 89.667C100.396 89.2983 100.937 89.1139 101.605 89.1139C102.251 89.1139 102.769 89.2983 103.161 89.667C103.553 90.0126 103.887 90.5657 104.163 91.3261L109.264 106.352L114.429 91.257C114.66 90.5426 114.982 90.0126 115.397 89.667C115.812 89.2983 116.376 89.1139 117.091 89.1139C117.989 89.1139 118.646 89.425 119.061 90.0472C119.476 90.6694 119.522 91.4183 119.199 92.2939L112.148 111.962C111.894 112.676 111.549 113.218 111.111 113.586C110.673 113.932 110.074 114.105 109.314 114.105C108.576 114.105 107.989 113.932 107.551 113.586C107.113 113.218 106.756 112.664 106.479 111.927L101.431 97.6438L96.317 111.962C96.0404 112.676 95.6833 113.218 95.2454 113.586C94.8307 113.932 94.2546 114.105 93.5172 114.105Z" fill="#0071E3"/>
</svg>
