<svg width="113" height="128" viewBox="0 0 113 128" fill="none" xmlns="http://www.w3.org/2000/svg">
<path fill-rule="evenodd" clip-rule="evenodd" d="M36.5342 1.51988C35.561 0.546716 34.2411 0 32.8649 0C31.4886 0 30.1687 0.546716 29.1956 1.51988C28.2224 2.49304 27.6757 3.81293 27.6757 5.18919V13.8378H19.027C13.9807 13.8378 9.14115 15.8425 5.57289 19.4107C2.00463 22.979 0 27.8186 0 32.8649V108.973C0 114.019 2.00463 118.859 5.57289 122.427C9.14115 125.995 13.9807 128 19.027 128H93.5495C98.5958 128 103.435 125.995 107.004 122.427C110.572 118.859 112.577 114.019 112.577 108.973V32.8649C112.577 27.8186 110.572 22.979 107.004 19.4107C103.435 15.8425 98.5958 13.8378 93.5495 13.8378H84.9009V5.18919C84.9009 3.81293 84.3542 2.49304 83.381 1.51988C82.4079 0.546716 81.088 0 79.7117 0C78.3354 0 77.0156 0.546716 76.0424 1.51988C75.0692 2.49304 74.5225 3.81293 74.5225 5.18919V13.8378H38.0541V5.18919C38.0541 3.81293 37.5073 2.49304 36.5342 1.51988ZM74.5225 32.8649V24.2162H38.0541V32.8649C38.0541 34.2411 37.5073 35.561 36.5342 36.5342C35.561 37.5073 34.2411 38.0541 32.8649 38.0541C31.4886 38.0541 30.1687 37.5073 29.1956 36.5342C28.2224 35.561 27.6757 34.2411 27.6757 32.8649V24.2162H19.027C14.253 24.2162 10.3784 28.0908 10.3784 32.8649V51.8919H102.198V32.8649C102.198 28.0908 98.3236 24.2162 93.5495 24.2162H84.9009V32.8649C84.9009 34.2411 84.3542 35.561 83.381 36.5342C82.4079 37.5073 81.088 38.0541 79.7117 38.0541C78.3354 38.0541 77.0156 37.5073 76.0424 36.5342C75.0692 35.561 74.5225 34.2411 74.5225 32.8649ZM10.3784 108.973V62.2703H102.198V108.973C102.198 113.747 98.3236 117.622 93.5495 117.622H19.027C14.253 117.622 10.3784 113.747 10.3784 108.973ZM30.6667 69.3333C24.0392 69.3333 18.6667 74.7059 18.6667 81.3333V97.3333C18.6667 103.961 24.0392 109.333 30.6667 109.333H81.3333C87.9607 109.333 93.3333 103.961 93.3333 97.3333V81.3333C93.3333 74.7059 87.9607 69.3333 81.3333 69.3333H30.6667ZM26.6667 81.3333C26.6667 79.1242 28.4575 77.3333 30.6667 77.3333H81.3333C83.5425 77.3333 85.3333 79.1242 85.3333 81.3333V97.3333C85.3333 99.5425 83.5425 101.333 81.3333 101.333H30.6667C28.4575 101.333 26.6667 99.5425 26.6667 97.3333V81.3333Z" fill="#0071E3"/>
</svg>
